<?xml version="1.0" encoding="UTF-8"?>
<!-- Generator: visioncortex VTracer 0.6.12 -->
<svg version="1.1" xmlns="http://www.w3.org/2000/svg" width="48" height="48" viewBox="400 400 450 450">

<path d="M0 0 C0.36955559 -0.00355247 0.36955559 -0.00355247 2.23973083 -0.02153015 C33.15793472 -0.25133817 33.15793472 -0.25133817 45.9765625 3.203125 C46.84958008 3.43418945 47.72259766 3.66525391 48.62207031 3.90332031 C79.68072995 12.3276241 107.93123058 26.19981952 129.9765625 50.203125 C126.78005324 52.94519077 123.97503769 53.92699062 119.9140625 54.953125 C115.52808672 56.12547702 111.31247809 57.41143682 107.078125 59.05078125 C106.24289307 59.37401367 105.40766113 59.69724609 104.54711914 60.03027344 C102.90560366 60.67518305 101.26905947 61.33292921 99.63842773 62.00488281 C94.68327225 63.94324304 91.28353534 64.66094405 85.9765625 63.203125 C83.44921875 61.85546875 83.44921875 61.85546875 81.0390625 60.140625 C69.11247219 52.20585795 56.72460564 47.03335312 42.9765625 43.203125 C41.9659375 42.89503906 40.9553125 42.58695312 39.9140625 42.26953125 C8.98064333 33.08617243 -26.00500299 40.59062849 -53.80834961 55.51660156 C-61.76183275 59.9973845 -68.96461392 65.43799694 -76.0234375 71.203125 C-77.03277344 72.02683594 -78.04210937 72.85054687 -79.08203125 73.69921875 C-102.00822079 93.50354418 -119.5110721 125.81546725 -122.0234375 156.203125 C-124.17665194 195.26441899 -115.30018396 230.17711875 -88.98217773 259.84960938 C-76.86316264 273.22523856 -63.46627071 283.64830974 -47.0234375 291.203125 C-47.0234375 291.863125 -47.0234375 292.523125 -47.0234375 293.203125 C-46.3840625 293.30625 -45.7446875 293.409375 -45.0859375 293.515625 C-39.80251091 294.70170036 -34.73598299 296.39722124 -29.8359375 298.703125 C-20.30338215 302.88600148 -9.31352527 303.84261141 0.9765625 304.203125 C1.80913574 304.24099121 2.64170898 304.27885742 3.49951172 304.31787109 C27.07851694 305.29740207 50.08859463 301.36763687 71.06933594 290.0769043 C73.73290747 288.85661211 75.20041992 289.39059546 77.9765625 290.203125 C79.6557863 290.83749844 81.32664668 291.49601822 82.9765625 292.203125 C82.9765625 292.863125 82.9765625 293.523125 82.9765625 294.203125 C83.85070801 294.47946777 84.72485352 294.75581055 85.62548828 295.04052734 C88.74417166 296.12250099 91.62406768 297.36989716 94.59375 298.8046875 C95.61210938 299.29453125 96.63046875 299.784375 97.6796875 300.2890625 C98.72640625 300.79695313 99.773125 301.30484375 100.8515625 301.828125 C101.92148437 302.34375 102.99140625 302.859375 104.09375 303.390625 C106.72291932 304.65826021 109.35044552 305.9291816 111.9765625 307.203125 C105.47472956 321.40391266 79.61696302 329.69079811 65.9140625 335.078125 C63.93996852 335.80047518 61.96124917 336.51040888 59.9765625 337.203125 C59.19023438 337.48671875 58.40390625 337.7703125 57.59375 338.0625 C26.02913005 348.54837375 -10.78424758 346.32234953 -42.0234375 336.203125 C-42.68085937 335.99349121 -43.33828125 335.78385742 -44.015625 335.56787109 C-61.76217604 329.78153329 -78.33131144 320.65959718 -93.0234375 309.203125 C-93.93738281 308.51089844 -94.85132813 307.81867188 -95.79296875 307.10546875 C-128.70107084 281.32825848 -150.64877888 244.00878776 -159.0234375 203.203125 C-159.20293945 202.34420654 -159.38244141 201.48528809 -159.56738281 200.6003418 C-161.14367497 192.27161162 -161.34097331 184.0968323 -161.2734375 175.640625 C-161.27000336 174.93725006 -161.26656921 174.23387512 -161.26303101 173.50918579 C-160.98914904 125.57440425 -142.993198 82.92783696 -109.5859375 48.390625 C-80.92604588 20.68468057 -40.37641715 0.25818199 0 0 Z " fill="#07A7FA" transform="translate(574.0234375,446.796875)"/>
<path d="M0 0 C13.46574698 -0.06972483 26.93145051 -0.12292514 40.39734173 -0.15543652 C46.65110877 -0.17104581 52.90475166 -0.19219723 59.15844727 -0.22631836 C65.20147218 -0.25908108 71.24437819 -0.27688858 77.28748512 -0.28463173 C79.58498822 -0.29014498 81.88248533 -0.30091048 84.17993736 -0.31719017 C108.02668071 -0.47934043 128.65297202 3.03442803 146.6875 20.125 C159.78464696 33.76474305 166.39306927 50.06037018 166.30249023 68.82348633 C166.01969993 80.02329763 163.2193353 90.11625872 158 100 C157.59265625 100.81855469 157.1853125 101.63710938 156.765625 102.48046875 C148.92133473 116.99240575 134.5173218 128.25901005 118.85931396 133.18630981 C106.73466261 136.63668635 94.53288816 136.2605456 82.046875 136.1953125 C79.93410375 136.19157596 77.82133074 136.18873202 75.70855713 136.18673706 C70.18486633 136.1791511 64.66128301 136.15954659 59.13763428 136.1373291 C53.48630222 136.1167614 47.83495256 136.10771212 42.18359375 136.09765625 C31.12234897 136.07629536 20.06118347 136.04222118 9 136 C9 135.34 9 134.68 9 134 C10.05804665 133.05675046 11.16560521 132.16899423 12.2890625 131.3046875 C15.6823658 128.45502182 18.19622166 125.49393143 20.73136902 121.90606689 C27.97291061 111.75797299 36.646103 100.32357176 49.28509521 97.18395996 C64.12959818 94.90937228 79.62206842 95.69286152 94.53849792 96.97872925 C102.66387163 97.53250293 108.87989567 96.03467734 116 92 C117.01245427 91.01261135 118.01630652 90.01604485 119 89 C119.66 89 120.32 89 121 89 C121.28617188 88.42765625 121.57234375 87.8553125 121.8671875 87.265625 C122.58494421 85.83011158 123.31760833 84.40187629 124.0703125 82.984375 C127.92223341 74.82400921 128.94029632 64.80498489 126.046875 56.1484375 C122.21910822 48.90475226 116.32045036 43.60476722 109 40 C105.22746028 39.0684003 101.68682594 38.86566016 97.80786133 38.84228516 C97.19353493 38.83715408 97.19353493 38.83715408 94.08467102 38.81118774 C93.75879407 38.80946878 93.75879407 38.80946878 92.10965919 38.80076981 C90.05231558 38.78889092 87.99517353 38.76941399 85.93791199 38.74765015 C80.09075766 38.68635006 74.2436252 38.63216214 68.39624023 38.59863281 C64.81114713 38.57753007 61.22642528 38.54210423 57.64154625 38.49787521 C55.63113218 38.47707062 53.62057717 38.47169479 51.61006165 38.46670532 C35.48833312 38.25208208 23.34102342 32.53365226 12 21 C7.25651802 15.70195646 0 7.48190774 0 0 Z " fill="#B2C3DD" transform="translate(678,661)"/>
<path d="M0 0 C1.39017739 0.00028239 2.78035492 0.00012312 4.17053223 -0.0004425 C7.92827552 -0.00072844 11.68598664 0.00513539 15.44372249 0.01213145 C19.3768324 0.01839886 23.30994312 0.01897147 27.24305725 0.02015686 C34.68372594 0.0232602 42.12437987 0.03146013 49.56504208 0.04150635 C58.03904356 0.05269848 66.51304576 0.05818574 74.9870528 0.06320179 C92.41203135 0.07364359 109.83699556 0.09122369 127.26196289 0.11352539 C126.47025971 1.72201162 125.67567974 3.32908209 124.87988281 4.93554688 C124.4377092 5.83063461 123.99553558 6.72572235 123.53996277 7.64793396 C116.01778496 22.16015534 102.2953575 31.98815041 87.13162231 37.18669128 C82.62598679 38.26585 78.56282898 38.38418067 73.95288086 38.35302734 C73.04615128 38.3550415 72.13942169 38.35705566 71.20521545 38.35913086 C69.2453428 38.36266298 67.28545873 38.36192585 65.32558823 38.35735512 C62.21286785 38.35173206 59.10051602 38.360971 55.98782349 38.3745575 C47.14071008 38.41155088 38.29372192 38.43026775 29.4465332 38.41894531 C24.02417674 38.41305951 18.60233877 38.43152382 13.18008804 38.46483421 C11.12544327 38.47273515 9.07074118 38.47158413 7.01610947 38.46080971 C-8.52200889 38.38285975 -20.86081505 39.26084579 -32.57788086 50.71118164 C-40.23789791 59.23000711 -43.10160772 66.79911352 -43.17553711 78.17602539 C-43.2084082 79.04163086 -43.2412793 79.90723633 -43.27514648 80.79907227 C-43.3383976 88.636461 -40.85918822 94.99571803 -37.73803711 102.11352539 C-42.1668447 102.33731847 -46.59260081 102.49988701 -51.02539062 102.60791016 C-52.53020577 102.65296257 -54.03463141 102.71423194 -55.53808594 102.79248047 C-68.00872828 103.42489952 -68.00872828 103.42489952 -72.22412109 100.22827148 C-74.02612913 97.93058691 -75.3944441 95.70099987 -76.73803711 93.11352539 C-77.25325928 92.32526367 -77.76848145 91.53700195 -78.29931641 90.72485352 C-83.45589646 82.81388948 -82.92975253 72.90751622 -81.35424805 63.92553711 C-76.52517029 41.63011859 -63.52080339 23.9959973 -44.83178711 11.10961914 C-30.65710339 2.2885458 -16.43182668 -0.04567968 0 0 Z " fill="#CDD7E9" transform="translate(730.738037109375,534.886474609375)"/>
<path d="M0 0 C46.53 0 93.06 0 141 0 C137 8 137 8 135 9 C135.33 7.35 135.66 5.7 136 4 C132.07008663 3.27219615 128.33798095 2.86882579 124.34317017 2.84178162 C123.24108215 2.8319928 122.13899414 2.82220398 121.00350952 2.81211853 C119.80948517 2.80636307 118.61546082 2.8006076 117.38525391 2.79467773 C116.11641357 2.78477814 114.84757324 2.77487854 113.5402832 2.76467896 C110.07382676 2.73774101 106.60735687 2.71667162 103.14085436 2.69667697 C99.51334233 2.67474853 95.88587126 2.64739352 92.25839233 2.62062073 C85.39500015 2.57078629 78.53158511 2.52581331 71.6681484 2.48259836 C63.8519278 2.43314674 56.03574832 2.3782581 48.21956754 2.32291877 C32.1464163 2.20924078 16.07322731 2.10237109 0 2 C0 1.34 0 0.68 0 0 Z " fill="#E1E5E9" transform="translate(717,535)"/>
<path d="M0 0 C1.32 0.66 2.64 1.32 4 2 C3.31591064 2.35811768 2.63182129 2.71623535 1.92700195 3.08520508 C-1.80629447 5.52746414 -4.71381228 8.46560531 -7.83203125 11.63671875 C-8.46864182 12.27615921 -9.10525238 12.91559967 -9.76115417 13.57441711 C-11.78303333 15.60744499 -13.79782668 17.64733362 -15.8125 19.6875 C-17.18638633 21.07142297 -18.56073039 22.45489168 -19.93554688 23.83789062 C-23.29568867 27.22002237 -26.64949505 30.60832238 -30 34 C-29.62037109 34.03029297 -29.62037109 34.03029297 -27.69921875 34.18359375 C-26.70535156 34.26738281 -25.71148438 34.35117187 -24.6875 34.4375 C-23.70136719 34.51871094 -22.71523438 34.59992187 -21.69921875 34.68359375 C-19 35 -19 35 -16 36 C-13.62412424 36.11857936 -11.24512016 36.1770529 -8.86645508 36.20532227 C-8.14425278 36.21522186 -7.42205048 36.22512146 -6.67796326 36.23532104 C-4.29185255 36.26689759 -1.90572194 36.29167822 0.48046875 36.31640625 C2.13528459 36.3369791 3.79009521 36.35797566 5.44490051 36.37937927 C9.79975153 36.43456575 14.15464971 36.48399013 18.50958252 36.53222656 C22.95369665 36.58246658 27.39774232 36.63813959 31.84179688 36.69335938 C40.56114003 36.80089908 49.28054047 36.90235335 58 37 C58 37.33 58 37.66 58 38 C26.65 38 -4.7 38 -37 38 C-37 37.34 -37 36.68 -37 36 C-35.77734375 34.79858398 -35.77734375 34.79858398 -33.9375 33.30859375 C-26.89323172 27.31879155 -20.51229455 20.61679402 -14 14.0625 C-12.63955682 12.69703255 -11.27888169 11.33179614 -9.91796875 9.96679688 C-6.6092969 6.64719114 -3.30378678 3.32446727 0 0 Z " fill="#6A7C99" transform="translate(724,759)"/>
<path d="M0 0 C0 0.66 0 1.32 0 2 C-0.65226563 2.19335938 -1.30453125 2.38671875 -1.9765625 2.5859375 C-2.85054687 2.84632813 -3.72453125 3.10671875 -4.625 3.375 C-5.48351562 3.63023437 -6.34203125 3.88546875 -7.2265625 4.1484375 C-9.12734682 4.7320586 -11.0142496 5.36233003 -12.88671875 6.03125 C-22.29634288 8.95921334 -32.52392215 9.17813384 -42.3125 9.1875 C-43.13065186 9.18830566 -43.94880371 9.18911133 -44.79174805 9.18994141 C-48.10438268 9.15858825 -50.83758736 9.05413755 -54 8 C-55.89212737 7.77820215 -57.78884472 7.59385985 -59.6875 7.4375 C-60.68136719 7.35371094 -61.67523437 7.26992188 -62.69921875 7.18359375 C-63.07884766 7.15330078 -63.07884766 7.15330078 -65 7 C-63 5 -63 5 -59.84912109 4.85229492 C-58.49031227 4.88624363 -57.13172143 4.92968786 -55.7734375 4.98046875 C-54.26167091 5.01454279 -52.74986792 5.04703032 -51.23803711 5.078125 C-50.44348114 5.09681641 -49.64892517 5.11550781 -48.83029175 5.13476562 C-33.57953821 5.46231894 -19.77224717 4.53477838 -4.97241211 0.45898438 C-3 0 -3 0 0 0 Z " fill="#0D77DD" transform="translate(626,746)"/>
<path d="M0 0 C0 0.66 0 1.32 0 2 C-8.53796313 6.06636215 -17.09732622 9.79686129 -26 13 C-26.85207031 13.31066406 -27.70414063 13.62132812 -28.58203125 13.94140625 C-35.29684857 16.18691059 -41.95315084 16.67968867 -49 17 C-48.67 16.34 -48.34 15.68 -48 15 C-45.17200849 14.3556475 -42.33881851 13.97673669 -39.46875 13.5625 C-38.6540625 13.376875 -37.839375 13.19125 -37 13 C-36.67 12.34 -36.34 11.68 -36 11 C-34.68 11 -33.36 11 -32 11 C-30.845 10.67 -29.69 10.34 -28.5 10 C-25 9 -25 9 -21 9 C-21 8.34 -21 7.68 -21 7 C-14.19047619 5.03571429 -14.19047619 5.03571429 -12 4.625 C-9.90209055 3.9694033 -8.32314237 3.05943753 -6.4375 1.9375 C-3 0 -3 0 0 0 Z " fill="#176CDD" transform="translate(660,771)"/>
<path d="M0 0 C2.45840605 -0.02691685 4.91651882 -0.04679802 7.375 -0.0625 C8.07367187 -0.07087891 8.77234375 -0.07925781 9.4921875 -0.08789062 C14.7734375 -0.11328125 14.7734375 -0.11328125 17 1 C23.55394389 2.0209028 30.37746431 2.45488124 37 2 C37.33 1.67 37.66 1.34 38 1 C39.70772358 0.91286169 41.41898649 0.89299993 43.12890625 0.90234375 C43.64614258 0.90395508 43.64614258 0.90395508 46.26367188 0.91210938 C47.35228516 0.92048828 48.44089844 0.92886719 49.5625 0.9375 C50.10874023 0.93975586 50.10874023 0.93975586 52.87304688 0.95117188 C55.58208495 0.96300174 58.29101599 0.97948457 61 1 C61 1.33 61 1.66 61 2 C40.48952096 5.37819655 20.4198511 4.57347394 0 1 C0 0.67 0 0.34 0 0 Z " fill="#1163C1" transform="translate(550,787)"/>
<path d="M0 0 C-0.62753174 0.18997559 -1.25506348 0.37995117 -1.90161133 0.57568359 C-18.42306965 5.64693913 -33.24963369 12.01013177 -48 21 C-48 20.01 -48 19.02 -48 18 C-41.25 14 -41.25 14 -39 14 C-39 13.34 -39 12.68 -39 12 C-38.34 12 -37.68 12 -37 12 C-37 11.34 -37 10.68 -37 10 C-36.27425781 9.88398438 -35.54851563 9.76796875 -34.80078125 9.6484375 C-31.9308517 8.98399077 -29.77968119 8.00693828 -27.1875 6.625 C-21.32954398 3.60885002 -15.5542534 1.0628519 -9 0 C-8.154375 -0.20625 -7.30875 -0.4125 -6.4375 -0.625 C-3.89216545 -1.01658993 -2.43943086 -0.69108612 0 0 Z " fill="#03C1F5" transform="translate(557,488)"/>
<path d="M0 0 C0.99 0.33 1.98 0.66 3 1 C2.74025391 1.50208984 2.74025391 1.50208984 1.42578125 4.04296875 C-5.20504688 16.98932628 -10.23094858 29.95554584 -14 44 C-14.33 44 -14.66 44 -15 44 C-14.08703775 34.50519263 -11.96663287 25.60326888 -7.8515625 16.98046875 C-6.73034062 14.3728564 -6.28850614 11.81293485 -6 9 C-5.01 9 -4.02 9 -3 9 C-2.01 6.03 -1.02 3.06 0 0 Z " fill="#01BDF1" transform="translate(467,550)"/>
<path d="M0 0 C2.31 0.99 2.31 0.99 14 6 C10.97027437 12.05945125 6.17353412 14.63869282 0.5 18.125 C-0.6034375 18.80820312 -1.706875 19.49140625 -2.84375 20.1953125 C-5.53197611 21.73239228 -8.09543548 22.94872105 -11 24 C-10.4375 22.125 -10.4375 22.125 -9 20 C-6.67451993 19.30643577 -4.34119555 18.63850788 -2 18 C-1.67 17.01 -1.34 16.02 -1 15 C0.32 15 1.64 15 3 15 C3.33 14.01 3.66 13.02 4 12 C5.3153341 11.29848848 6.65117592 10.63474075 8 10 C9.75 8.375 9.75 8.375 11 7 C10.113125 6.731875 9.22625 6.46375 8.3125 6.1875 C5.2090334 5.0749365 2.68889315 3.89804222 0 2 C0 1.34 0 0.68 0 0 Z " fill="#166DE5" transform="translate(672,748)"/>
<path d="M0 0 C0.33 0.66 0.66 1.32 1 2 C-3.33426462 7.36766567 -7.67893403 12.69899782 -12.3125 17.8125 C-15.23157433 21.0520316 -17.71606002 24.28859754 -20 28 C-20.33 27.01 -20.66 26.02 -21 25 C-19.61968637 22.83223873 -18.23439426 20.92416809 -16.625 18.9375 C-16.17253906 18.36475342 -15.72007812 17.79200684 -15.25390625 17.2019043 C-10.46988378 11.20938311 -5.42341172 5.42341172 0 0 Z " fill="#02CEF0" transform="translate(465,495)"/>
<path d="M0 0 C0.66 0.33 1.32 0.66 2 1 C-0.64 3.97 -3.28 6.94 -6 10 C-5.1234375 10.061875 -5.1234375 10.061875 -0.6875 10.375 C3.16904361 10.64722661 4.71508627 10.81005752 8 13 C1.4 13 -5.2 13 -12 13 C-8.04354855 8.38413998 -4.30058488 4.19819 0 0 Z " fill="#99B2DB" transform="translate(700,783)"/>
<path d="M0 0 C0 0.66 0 1.32 0 2 C-0.35513672 2.10248047 -0.35513672 2.10248047 -2.15234375 2.62109375 C-2.61189453 2.75580078 -2.61189453 2.75580078 -4.9375 3.4375 C-5.39576172 3.57091797 -5.39576172 3.57091797 -7.71484375 4.24609375 C-10 5 -10 5 -11 6 C-13.69654854 6.07319621 -16.36691458 6.09242537 -19.0625 6.0625 C-19.82111328 6.05798828 -20.57972656 6.05347656 -21.36132812 6.04882812 C-23.24091871 6.0370068 -25.12046899 6.01907078 -27 6 C-23.32340054 3.5489337 -19.83324621 3.11522547 -15.5625 2.4375 C-14.04276757 2.18741745 -12.52322904 1.93615307 -11.00390625 1.68359375 C-10.66782349 1.62973511 -10.66782349 1.62973511 -8.96704102 1.35717773 C-7 1 -7 1 -4.93725586 0.45727539 C-3 0 -3 0 0 0 Z " fill="#0F68CA" transform="translate(626,746)"/>
<path d="M0 0 C1.6792238 0.63437344 3.35008418 1.29289322 5 2 C5 2.33 5 2.66 5 3 C4.39414062 2.86980469 3.78828125 2.73960937 3.1640625 2.60546875 C-3.380154 1.52819003 -6.890377 2.52737515 -12.59375 5.78515625 C-16.08917009 7.54988944 -19.11938428 7.78441024 -23 8 C-21.36521885 4.73043769 -17.82604285 4.17601903 -14.5625 2.9375 C-4.20047099 -1.07453909 -4.20047099 -1.07453909 0 0 Z " fill="#1272D9" transform="translate(652,737)"/>
<path d="M0 0 C3.55091137 0.94207853 6.72960378 1.87307932 10.0625 3.4375 C15.69620692 5.98175474 21.96963696 6.82069183 28 8 C28 8.33 28 8.66 28 9 C22.50853502 10.42725873 18.6774999 9.40666373 13.4375 7.75 C12.69564453 7.53214844 11.95378906 7.31429687 11.18945312 7.08984375 C7.12563357 5.85224243 3.46033254 4.54899744 0 2 C0 1.34 0 0.68 0 0 Z " fill="#0F7FE3" transform="translate(534,742)"/>
<path d="M0 0 C-3.66537252 2.44358168 -7.36872864 3.72189872 -11.5 5.1875 C-12.27214844 5.47302734 -13.04429687 5.75855469 -13.83984375 6.05273438 C-14.58363281 6.31763672 -15.32742188 6.58253906 -16.09375 6.85546875 C-16.77115234 7.09934326 -17.44855469 7.34321777 -18.14648438 7.59448242 C-20 8 -20 8 -23 7 C-22.67 6.34 -22.34 5.68 -22 5 C-20.02 5 -18.04 5 -16 5 C-16 4.34 -16 3.68 -16 3 C-3.625 -1.125 -3.625 -1.125 0 0 Z " fill="#0B95F3" transform="translate(695,500)"/>
<path d="M0 0 C0 0.66 0 1.32 0 2 C0.69867187 2.10957031 1.39734375 2.21914063 2.1171875 2.33203125 C2.57222656 2.41130859 2.57222656 2.41130859 4.875 2.8125 C5.32746094 2.88791016 5.32746094 2.88791016 7.6171875 3.26953125 C10 4 10 4 12 7 C4.64987044 6.42351925 -2.01424576 4.28953836 -9 2 C-5.5647952 -0.29013653 -4.014669 -0.17842973 0 0 Z " fill="#116DCA" transform="translate(538,780)"/>
<path d="M0 0 C0.66 0.66 1.32 1.32 2 2 C0.97519531 2.54269531 -0.04960938 3.08539063 -1.10546875 3.64453125 C-2.46618303 4.36711745 -3.82685804 5.08977762 -5.1875 5.8125 C-5.86103516 6.16892578 -6.53457031 6.52535156 -7.22851562 6.89257812 C-10.88162727 8.83496432 -14.47478512 10.83011045 -18 13 C-18 12.01 -18 11.02 -18 10 C-11.25 6 -11.25 6 -9 6 C-9 5.34 -9 4.68 -9 4 C-8.34 4 -7.68 4 -7 4 C-7 3.34 -7 2.68 -7 2 C-6.21625 1.855625 -5.4325 1.71125 -4.625 1.5625 C-2 1 -2 1 0 0 Z " fill="#02BAEB" transform="translate(527,496)"/>
<path d="M0 0 C-1.88886592 1.3225074 -3.78639839 2.63264256 -5.6875 3.9375 C-6.74324219 4.66839844 -7.79898437 5.39929688 -8.88671875 6.15234375 C-11.75616298 7.85528869 -13.72538283 8.61725254 -17 9 C-6.59567443 -2.37973109 -6.59567443 -2.37973109 0 0 Z " fill="#03C4E7" transform="translate(500,472)"/>
<path d="M0 0 C0.66 0.33 1.32 0.66 2 1 C1.63648438 1.59425781 1.27296875 2.18851563 0.8984375 2.80078125 C-2.92410563 9.10307671 -6.51744356 15.50416778 -10 22 C-10.33 21.34 -10.66 20.68 -11 20 C-10.21142578 18.04467773 -10.21142578 18.04467773 -8.9453125 15.68359375 C-8.49542969 14.83732422 -8.04554688 13.99105469 -7.58203125 13.11914062 C-7.34162109 12.67666992 -7.34162109 12.67666992 -6.125 10.4375 C-5.65191406 9.54869141 -5.17882812 8.65988281 -4.69140625 7.74414062 C-1.17249076 1.17249076 -1.17249076 1.17249076 0 0 Z " fill="#01C8EB" transform="translate(438,530)"/>
<path d="M0 0 C0 0.33 0 0.66 0 1 C-0.62455078 1.01981934 -1.24910156 1.03963867 -1.89257812 1.06005859 C-4.76209381 1.15616932 -7.63096547 1.26549487 -10.5 1.375 C-10.99113281 1.39046875 -10.99113281 1.39046875 -13.4765625 1.46875 C-19.29340205 1.70142358 -24.38736475 2.49661556 -30 4 C-33.5 3.625 -33.5 3.625 -36 3 C-36 2.67 -36 2.34 -36 2 C-24.06247907 -0.56622331 -12.14435312 -0.20232807 0 0 Z " fill="#025271" transform="translate(595,485)"/>
<path d="M0 0 C2.31 0.99 2.31 0.99 14 6 C12 10 12 10 9.875 10.75 C9.565625 10.79125 9.565625 10.79125 8 11 C8.99 9.68 9.98 8.36 11 7 C10.113125 6.731875 9.22625 6.46375 8.3125 6.1875 C5.2090334 5.0749365 2.68889315 3.89804222 0 2 C0 1.34 0 0.68 0 0 Z " fill="#1575EE" transform="translate(672,748)"/>
<path d="M0 0 C0.66 0.33 1.32 0.66 2 1 C0.56354149 2.60509934 -0.87420706 4.20904424 -2.3125 5.8125 C-3.11300781 6.70582031 -3.91351563 7.59914063 -4.73828125 8.51953125 C-6.45224581 10.39926786 -8.17877604 12.22592747 -10 14 C-10 10 -10 10 -8.3125 8.0625 C-7.549375 7.381875 -6.78625 6.70125 -6 6 C-5.113125 5.113125 -4.22625 4.22625 -3.3125 3.3125 C-2.20833333 2.20833333 -1.10416667 1.10416667 0 0 Z " fill="#02BAEB" transform="translate(488,524)"/>
<path d="M0 0 C-1.31157516 3.93472548 -3.33383447 5.12683424 -6.5625 7.6875 C-7.57441406 8.49574219 -8.58632813 9.30398438 -9.62890625 10.13671875 C-10.41136719 10.75160156 -11.19382812 11.36648438 -12 12 C-12 8.36535824 -10.77383718 7.09789076 -8.4375 4.4296875 C-6.00271824 2.00813825 -3.51208377 0 0 0 Z " fill="#02B8E9" transform="translate(503,512)"/>
<path d="M0 0 C-1.98 0.33 -3.96 0.66 -6 1 C-6 1.66 -6 2.32 -6 3 C-10.1205746 4.99785435 -13.45194365 5.17835515 -18 5 C-15.17770487 3.11846991 -12.72109829 1.99965295 -9.5625 0.8125 C-8.61503906 0.44769531 -7.66757812 0.08289063 -6.69140625 -0.29296875 C-3.92916783 -1.01860758 -2.63633262 -0.97849698 0 0 Z " fill="#04A4CD" transform="translate(540,454)"/>
<path d="M0 0 C0.33 0 0.66 0 1 0 C1.33 5.94 1.66 11.88 2 18 C1.34 18 0.68 18 0 18 C-2.0263374 11.40660984 -2.0263374 6.59339016 0 0 Z " fill="#94A3C0" transform="translate(686,608)"/>
<path d="M0 0 C0.66 0.66 1.32 1.32 2 2 C1.74605469 2.18755859 1.74605469 2.18755859 0.4609375 3.13671875 C-3.80386392 6.307367 -7.95087595 9.55824456 -12 13 C-10.53438126 9.60312324 -8.63352456 7.39277314 -6 4.8125 C-5.649375 4.46509766 -5.649375 4.46509766 -3.875 2.70703125 C-2 1 -2 1 0 0 Z " fill="#101217" transform="translate(705,579)"/>
<path d="M0 0 C3.55484335 0.49372824 6.78682443 1.39341222 10 3 C10.33 3.99 10.66 4.98 11 6 C9.56068883 5.54738642 8.12361001 5.08767021 6.6875 4.625 C5.88699219 4.36976563 5.08648438 4.11453125 4.26171875 3.8515625 C2 3 2 3 -1 1 C-0.67 0.67 -0.34 0.34 0 0 Z " fill="#0E7BD7" transform="translate(517,775)"/>
<path d="M0 0 C-1 3 -1 3 -2.6875 4.1875 C-5.54969093 5.19313465 -7.98827908 5.13689641 -11 5 C-10.67 4.34 -10.34 3.68 -10 3 C-8.68 3 -7.36 3 -6 3 C-6 2.34 -6 1.68 -6 1 C-3.92446352 0.4465236 -2.15634036 0 0 0 Z " fill="#1B75E9" transform="translate(645,777)"/>
<path d="M0 0 C-2.31381865 2.70813501 -4.09294125 3.54122688 -7.5625 4.25 C-7.95501953 4.33507812 -7.95501953 4.33507812 -9.94140625 4.765625 C-12 5 -12 5 -14 4 C-4.58997722 -0.59225513 -4.58997722 -0.59225513 0 0 Z " fill="#1667C6" transform="translate(643,740)"/>
<path d="M0 0 C0.33 0.66 0.66 1.32 1 2 C-1.31 4.64 -3.62 7.28 -6 10 C-6.99 9.67 -7.98 9.34 -9 9 C-6.03 6.03 -3.06 3.06 0 0 Z " fill="#03B9D7" transform="translate(465,495)"/>
<path d="M0 0 C1.97944936 2.96917403 2.29350581 3.65702279 2.3125 7 C2.32925781 7.680625 2.34601562 8.36125 2.36328125 9.0625 C2 11 2 11 -1 14 C-0.67 9.38 -0.34 4.76 0 0 Z " fill="#C2D1E6" transform="translate(807,724)"/>
<path d="M0 0 C1.98 0.66 3.96 1.32 6 2 C6 2.66 6 3.32 6 4 C7.65 4.33 9.3 4.66 11 5 C10.01 5.66 9.02 6.32 8 7 C7.71125 6.773125 7.71125 6.773125 6.25 5.625 C4.2199667 4.15886484 2.26460157 3.05142216 0 2 C0 1.34 0 0.68 0 0 Z " fill="#097AD6" transform="translate(521,736)"/>
<path d="M0 0 C0.99 0.33 1.98 0.66 3 1 C0.36 3.64 -2.28 6.28 -5 9 C-5.66 8.67 -6.32 8.34 -7 8 C-4.69 5.36 -2.38 2.72 0 0 Z " fill="#03CEF5" transform="translate(475,486)"/>
<path d="M0 0 C7.75 0.75 7.75 0.75 10 3 C10 3.66 10 4.32 10 5 C6.08788267 3.84414715 3.1254959 2.64465038 0 0 Z " fill="#0B7AD0" transform="translate(506,771)"/>
<path d="M0 0 C-2.39763185 2.39763185 -3.33273498 2.34280586 -6.625 2.625 C-7.44226563 2.69976563 -8.25953125 2.77453125 -9.1015625 2.8515625 C-9.72804688 2.90054688 -10.35453125 2.94953125 -11 3 C-10 1 -10 1 -8.3125 0.375 C-5.51555886 -0.07855802 -2.82858003 -0.06428591 0 0 Z " fill="#197AEE" transform="translate(622,785)"/>
<path d="M0 0 C-1.28913487 0.67154933 -2.58140204 1.33708859 -3.875 2 C-4.59429688 2.37125 -5.31359375 2.7425 -6.0546875 3.125 C-8 4 -8 4 -10 4 C-10 3.01 -10 2.02 -10 1 C-8.71073008 0.63720544 -7.41846728 0.28503302 -6.125 -0.0625 C-5.40570312 -0.25972656 -4.68640625 -0.45695313 -3.9453125 -0.66015625 C-2 -1 -2 -1 0 0 Z " fill="#1082F2" transform="translate(636,744)"/>
<path d="M0 0 C0 0.66 0 1.32 0 2 C-2.40545638 3.20272819 -3.94996953 3.10071472 -6.625 3.0625 C-7.03363281 3.05798828 -7.03363281 3.05798828 -9.1015625 3.03515625 C-9.41480469 3.02935547 -9.41480469 3.02935547 -11 3 C-7.20844146 1.05276952 -4.29965574 0 0 0 Z " fill="#1470D6" transform="translate(626,746)"/>
<path d="M0 0 C0.6875 1.625 0.6875 1.625 1 4 C-0.4375 7.25 -0.4375 7.25 -2 10 C-2.66 10 -3.32 10 -4 10 C-2.8905928 6.51329166 -1.73662334 3.22515763 0 0 Z " fill="#AAB8D3" transform="translate(658,576)"/>
<path d="M0 0 C-4.92984325 2.03993514 -8.57960425 3.40652968 -14 3 C-11.39395012 1.26263341 -9.92766764 0.54996173 -7 -0.1875 C-6.319375 -0.36667969 -5.63875 -0.54585938 -4.9375 -0.73046875 C-3 -1 -3 -1 0 0 Z " fill="#04CAFC" transform="translate(548,453)"/>
<path d="M0 0 C0 0.99 0 1.98 0 3 C-2.97 2.67 -5.94 2.34 -9 2 C-5.5647952 -0.29013653 -4.014669 -0.17842973 0 0 Z " fill="#1284E8" transform="translate(538,780)"/>
<path d="M0 0 C0.33 0.99 0.66 1.98 1 3 C0.00390625 4.82421875 0.00390625 4.82421875 -1.4375 6.6875 C-1.91058594 7.31011719 -2.38367188 7.93273437 -2.87109375 8.57421875 C-3.24363281 9.04472656 -3.61617188 9.51523437 -4 10 C-4.33 9.01 -4.66 8.02 -5 7 C-4.00390625 5.17578125 -4.00390625 5.17578125 -2.5625 3.3125 C-2.08941406 2.68988281 -1.61632812 2.06726563 -1.12890625 1.42578125 C-0.75636719 0.95527344 -0.38382812 0.48476563 0 0 Z " fill="#02C3E4" transform="translate(449,513)"/>
<path d="M0 0 C0.66 0.33 1.32 0.66 2 1 C-0.36292656 3.52588702 -1.66462511 4.88820837 -5 6 C-5.66 5.34 -6.32 4.68 -7 4 C-1.7265625 0.77734375 -1.7265625 0.77734375 0 0 Z " fill="#06B4D9" transform="translate(508,464)"/>
<path d="M0 0 C0 0.33 0 0.66 0 1 C-5.16044765 2.512545 -8.65998179 3.33500455 -14 2 C-14 1.67 -14 1.34 -14 1 C-9.23692563 0.04738513 -4.8333472 -0.08333357 0 0 Z " fill="#023147" transform="translate(573,486)"/>
</svg>
